# xmcd CD database file
#
# Track frame offsets:
#	150
#	14986
#	31247
#	42856
#	57328
#	67880
#	80242
#	98522
#	116602
#	127788
#	138997
#	153789
#
# Disc length: 2255 seconds
#
# Revision: 0
# Processed by: cddbd v1.5.1PL2 Copyright (c) Steve Scherf et al.
# Submitted via: CDex 1.51
#
DISCID=9608cd0c
DTITLE=Salvador Trio - Salvador Trio
DYEAR=1967
DGENRE=Jazz
TTITLE0=TEMA PRO GAGUINHO
TTITLE1=DAS ROSAS
TTITLE2=MISCELANIA
TTITLE3=MARIA
TTITLE4=SANTAREM
TTITLE5=PRO BATERA
TTITLE6=TEMATRIO
TTITLE7=ARRASTAO
TTITLE8=RIO E SEMPRE RIO
TTITLE9=PROMESSA
TTITLE10=DEDICACAO
TTITLE11=CHEGOU O CARNAVAL
EXTD=YEAR: 1967
EXTT0=
EXTT1=
EXTT2=
EXTT3=
EXTT4=
EXTT5=
EXTT6=
EXTT7=
EXTT8=
EXTT9=
EXTT10=
EXTT11=
PLAYORDER=
